<?xml version="1.0" standalone="no"?><!DOCTYPE svg PUBLIC "-//W3C//DTD SVG 1.1//EN" "http://www.w3.org/Graphics/SVG/1.1/DTD/svg11.dtd"><svg t="1725687434081" class="icon" viewBox="0 0 1024 1024" version="1.1" xmlns="http://www.w3.org/2000/svg" p-id="8233" xmlns:xlink="http://www.w3.org/1999/xlink" width="200" height="200"><path d="M962.267429 233.142857a396.8 396.8 0 0 1-92.562286 95.414857c0.585143 8.009143 0.585143 16.018286 0.585143 23.990857 0 244.004571-185.709714 525.129143-525.129143 525.129143-104.557714 0-201.728-30.281143-283.428572-82.870857 14.848 1.718857 29.147429 2.304 44.580572 2.304 86.272 0 165.705143-29.147429 229.156571-78.848a184.905143 184.905143 0 0 1-172.580571-128c11.446857 1.718857 22.857143 2.852571 34.852571 2.852572 16.566857 0 33.133714-2.304 48.566857-6.290286a184.612571 184.612571 0 0 1-148.004571-181.138286v-2.304a186.258286 186.258286 0 0 0 83.419429 23.442286 184.466286 184.466286 0 0 1-82.285715-153.709714c0-34.304 9.142857-65.718857 25.161143-93.147429a524.580571 524.580571 0 0 0 380.562286 193.133714 208.749714 208.749714 0 0 1-4.571429-42.276571 184.502857 184.502857 0 0 1 184.576-184.576 183.954286 183.954286 0 0 1 134.838857 58.294857 363.629714 363.629714 0 0 0 117.138286-44.580571 184.027429 184.027429 0 0 1-81.152 101.705142c37.156571-3.986286 73.142857-14.299429 106.276572-28.562285z" fill="" p-id="8234"></path></svg>